<mxfile host="app.diagrams.net" modified="2022-12-19T23:54:53.684Z" agent="5.0 (Windows NT 10.0; Win64; x64) AppleWebKit/537.36 (KHTML, like Gecko) Chrome/107.0.0.0 Safari/537.36" etag="KVGS3yhHUb44y6FkC-MA" version="20.7.4" type="github">
  <diagram id="C5RBs43oDa-KdzZeNtuy" name="Page-1">
    <mxGraphModel dx="1434" dy="788" grid="1" gridSize="10" guides="1" tooltips="1" connect="1" arrows="1" fold="1" page="1" pageScale="1" pageWidth="1169" pageHeight="827" math="0" shadow="0">
      <root>
        <mxCell id="WIyWlLk6GJQsqaUBKTNV-0" />
        <mxCell id="WIyWlLk6GJQsqaUBKTNV-1" parent="WIyWlLk6GJQsqaUBKTNV-0" />
        <mxCell id="WIyWlLk6GJQsqaUBKTNV-2" value="" style="rounded=0;html=1;jettySize=auto;orthogonalLoop=1;fontSize=11;endArrow=block;endFill=0;endSize=8;strokeWidth=1;shadow=0;labelBackgroundColor=none;edgeStyle=orthogonalEdgeStyle;entryX=0;entryY=0.5;entryDx=0;entryDy=0;" parent="WIyWlLk6GJQsqaUBKTNV-1" source="WIyWlLk6GJQsqaUBKTNV-3" target="WIyWlLk6GJQsqaUBKTNV-7" edge="1">
          <mxGeometry relative="1" as="geometry">
            <mxPoint x="170" y="210" as="targetPoint" />
          </mxGeometry>
        </mxCell>
        <mxCell id="WIyWlLk6GJQsqaUBKTNV-3" value="Talley Eployee" style="rounded=1;whiteSpace=wrap;html=1;fontSize=12;glass=0;strokeWidth=1;shadow=0;" parent="WIyWlLk6GJQsqaUBKTNV-1" vertex="1">
          <mxGeometry x="40" y="80" width="120" height="40" as="geometry" />
        </mxCell>
        <mxCell id="WIyWlLk6GJQsqaUBKTNV-7" value="Login" style="rounded=1;whiteSpace=wrap;html=1;fontSize=12;glass=0;strokeWidth=1;shadow=0;" parent="WIyWlLk6GJQsqaUBKTNV-1" vertex="1">
          <mxGeometry x="200" y="80" width="120" height="40" as="geometry" />
        </mxCell>
        <mxCell id="sL0BoKVIkpg_OhBl1nNR-25" value="get Eployee orders" style="edgeStyle=orthogonalEdgeStyle;rounded=0;orthogonalLoop=1;jettySize=auto;html=1;entryX=1;entryY=0;entryDx=0;entryDy=25;entryPerimeter=0;strokeWidth=2;startArrow=classic;startFill=1;endArrow=classic;endFill=1;fillColor=#dae8fc;strokeColor=#6c8ebf;" edge="1" parent="WIyWlLk6GJQsqaUBKTNV-1" source="sL0BoKVIkpg_OhBl1nNR-0" target="sL0BoKVIkpg_OhBl1nNR-12">
          <mxGeometry x="0.3077" relative="1" as="geometry">
            <mxPoint as="offset" />
          </mxGeometry>
        </mxCell>
        <mxCell id="sL0BoKVIkpg_OhBl1nNR-0" value="Dashboard" style="rounded=1;whiteSpace=wrap;html=1;fontSize=12;glass=0;strokeWidth=1;shadow=0;" vertex="1" parent="WIyWlLk6GJQsqaUBKTNV-1">
          <mxGeometry x="360" y="80" width="120" height="40" as="geometry" />
        </mxCell>
        <mxCell id="sL0BoKVIkpg_OhBl1nNR-2" value="Store" style="rounded=1;whiteSpace=wrap;html=1;fontSize=12;glass=0;strokeWidth=1;shadow=0;" vertex="1" parent="WIyWlLk6GJQsqaUBKTNV-1">
          <mxGeometry x="520" y="80" width="120" height="40" as="geometry" />
        </mxCell>
        <mxCell id="sL0BoKVIkpg_OhBl1nNR-3" value="" style="rounded=0;html=1;jettySize=auto;orthogonalLoop=1;fontSize=11;endArrow=block;endFill=0;endSize=8;strokeWidth=1;shadow=0;labelBackgroundColor=none;edgeStyle=orthogonalEdgeStyle;entryX=0;entryY=0.5;entryDx=0;entryDy=0;" edge="1" parent="WIyWlLk6GJQsqaUBKTNV-1">
          <mxGeometry relative="1" as="geometry">
            <mxPoint x="320" y="99.5" as="sourcePoint" />
            <mxPoint x="360" y="99.5" as="targetPoint" />
          </mxGeometry>
        </mxCell>
        <mxCell id="sL0BoKVIkpg_OhBl1nNR-4" value="" style="rounded=0;html=1;jettySize=auto;orthogonalLoop=1;fontSize=11;endArrow=block;endFill=0;endSize=8;strokeWidth=1;shadow=0;labelBackgroundColor=none;edgeStyle=orthogonalEdgeStyle;entryX=0;entryY=0.5;entryDx=0;entryDy=0;" edge="1" parent="WIyWlLk6GJQsqaUBKTNV-1">
          <mxGeometry relative="1" as="geometry">
            <mxPoint x="480" y="99.5" as="sourcePoint" />
            <mxPoint x="520" y="99.5" as="targetPoint" />
          </mxGeometry>
        </mxCell>
        <mxCell id="sL0BoKVIkpg_OhBl1nNR-5" value="Employees" style="shape=cylinder3;whiteSpace=wrap;html=1;boundedLbl=1;backgroundOutline=1;size=15;" vertex="1" parent="WIyWlLk6GJQsqaUBKTNV-1">
          <mxGeometry x="270" y="200" width="100" height="70" as="geometry" />
        </mxCell>
        <mxCell id="sL0BoKVIkpg_OhBl1nNR-7" value="Store" style="shape=cylinder3;whiteSpace=wrap;html=1;boundedLbl=1;backgroundOutline=1;size=15;" vertex="1" parent="WIyWlLk6GJQsqaUBKTNV-1">
          <mxGeometry x="270" y="400" width="100" height="70" as="geometry" />
        </mxCell>
        <mxCell id="sL0BoKVIkpg_OhBl1nNR-8" value="get products" style="endArrow=classic;startArrow=classic;html=1;rounded=0;entryX=0.5;entryY=1;entryDx=0;entryDy=0;exitX=1;exitY=0;exitDx=0;exitDy=27.5;exitPerimeter=0;edgeStyle=orthogonalEdgeStyle;" edge="1" parent="WIyWlLk6GJQsqaUBKTNV-1" source="sL0BoKVIkpg_OhBl1nNR-7" target="sL0BoKVIkpg_OhBl1nNR-2">
          <mxGeometry width="50" height="50" relative="1" as="geometry">
            <mxPoint x="340" y="210" as="sourcePoint" />
            <mxPoint x="420.03999999999996" y="130" as="targetPoint" />
          </mxGeometry>
        </mxCell>
        <mxCell id="sL0BoKVIkpg_OhBl1nNR-9" value="get employee&amp;nbsp; data" style="edgeStyle=orthogonalEdgeStyle;rounded=0;orthogonalLoop=1;jettySize=auto;html=1;entryX=1;entryY=0;entryDx=0;entryDy=27.5;entryPerimeter=0;fillColor=#dae8fc;strokeColor=#6c8ebf;strokeWidth=2;startArrow=classic;startFill=1;" edge="1" parent="WIyWlLk6GJQsqaUBKTNV-1" source="sL0BoKVIkpg_OhBl1nNR-0" target="sL0BoKVIkpg_OhBl1nNR-5">
          <mxGeometry relative="1" as="geometry">
            <mxPoint x="470" y="200" as="sourcePoint" />
          </mxGeometry>
        </mxCell>
        <mxCell id="sL0BoKVIkpg_OhBl1nNR-12" value="Orders" style="shape=cylinder3;whiteSpace=wrap;html=1;boundedLbl=1;backgroundOutline=1;size=15;" vertex="1" parent="WIyWlLk6GJQsqaUBKTNV-1">
          <mxGeometry x="270" y="305" width="100" height="70" as="geometry" />
        </mxCell>
        <mxCell id="sL0BoKVIkpg_OhBl1nNR-18" value="Add to cart" style="rounded=1;whiteSpace=wrap;html=1;fontSize=12;glass=0;strokeWidth=1;shadow=0;" vertex="1" parent="WIyWlLk6GJQsqaUBKTNV-1">
          <mxGeometry x="680" y="80" width="120" height="40" as="geometry" />
        </mxCell>
        <mxCell id="sL0BoKVIkpg_OhBl1nNR-21" value="" style="rounded=0;html=1;jettySize=auto;orthogonalLoop=1;fontSize=11;endArrow=block;endFill=0;endSize=8;strokeWidth=1;shadow=0;labelBackgroundColor=none;edgeStyle=orthogonalEdgeStyle;entryX=0;entryY=0.5;entryDx=0;entryDy=0;" edge="1" parent="WIyWlLk6GJQsqaUBKTNV-1">
          <mxGeometry relative="1" as="geometry">
            <mxPoint x="640" y="99.5" as="sourcePoint" />
            <mxPoint x="680" y="99.5" as="targetPoint" />
          </mxGeometry>
        </mxCell>
        <mxCell id="sL0BoKVIkpg_OhBl1nNR-22" value="" style="rounded=0;html=1;jettySize=auto;orthogonalLoop=1;fontSize=11;endArrow=block;endFill=0;endSize=8;strokeWidth=1;shadow=0;labelBackgroundColor=none;edgeStyle=orthogonalEdgeStyle;entryX=0;entryY=0.5;entryDx=0;entryDy=0;" edge="1" parent="WIyWlLk6GJQsqaUBKTNV-1">
          <mxGeometry relative="1" as="geometry">
            <mxPoint x="800" y="99.5" as="sourcePoint" />
            <mxPoint x="840" y="99.5" as="targetPoint" />
          </mxGeometry>
        </mxCell>
        <mxCell id="sL0BoKVIkpg_OhBl1nNR-24" value="Place order" style="edgeStyle=orthogonalEdgeStyle;rounded=0;orthogonalLoop=1;jettySize=auto;html=1;entryX=1;entryY=0.5;entryDx=0;entryDy=0;entryPerimeter=0;strokeWidth=2;startArrow=classic;startFill=1;endArrow=classic;endFill=1;exitX=0.5;exitY=1;exitDx=0;exitDy=0;fillColor=#d5e8d4;strokeColor=#82b366;" edge="1" parent="WIyWlLk6GJQsqaUBKTNV-1" source="sL0BoKVIkpg_OhBl1nNR-23" target="sL0BoKVIkpg_OhBl1nNR-12">
          <mxGeometry relative="1" as="geometry" />
        </mxCell>
        <mxCell id="sL0BoKVIkpg_OhBl1nNR-23" value="Check out" style="rounded=1;whiteSpace=wrap;html=1;fontSize=12;glass=0;strokeWidth=1;shadow=0;" vertex="1" parent="WIyWlLk6GJQsqaUBKTNV-1">
          <mxGeometry x="840" y="80" width="120" height="40" as="geometry" />
        </mxCell>
        <mxCell id="sL0BoKVIkpg_OhBl1nNR-28" style="edgeStyle=orthogonalEdgeStyle;rounded=0;orthogonalLoop=1;jettySize=auto;html=1;entryX=1;entryY=0;entryDx=0;entryDy=45;entryPerimeter=0;strokeWidth=2;startArrow=none;startFill=1;endArrow=classic;endFill=1;exitX=0;exitY=0.5;exitDx=0;exitDy=0;" edge="1" parent="WIyWlLk6GJQsqaUBKTNV-1" source="sL0BoKVIkpg_OhBl1nNR-30" target="sL0BoKVIkpg_OhBl1nNR-12">
          <mxGeometry relative="1" as="geometry">
            <mxPoint x="830" y="400" as="sourcePoint" />
          </mxGeometry>
        </mxCell>
        <mxCell id="sL0BoKVIkpg_OhBl1nNR-62" value="Update" style="edgeLabel;html=1;align=center;verticalAlign=middle;resizable=0;points=[];" vertex="1" connectable="0" parent="sL0BoKVIkpg_OhBl1nNR-28">
          <mxGeometry x="-0.37" y="-2" relative="1" as="geometry">
            <mxPoint as="offset" />
          </mxGeometry>
        </mxCell>
        <mxCell id="sL0BoKVIkpg_OhBl1nNR-26" value="Sent order for Management Aprovation" style="rounded=1;whiteSpace=wrap;html=1;fontSize=12;glass=0;strokeWidth=1;shadow=0;" vertex="1" parent="WIyWlLk6GJQsqaUBKTNV-1">
          <mxGeometry x="1000" y="70" width="120" height="50" as="geometry" />
        </mxCell>
        <mxCell id="sL0BoKVIkpg_OhBl1nNR-27" value="" style="rounded=0;html=1;jettySize=auto;orthogonalLoop=1;fontSize=11;endArrow=block;endFill=0;endSize=8;strokeWidth=1;shadow=0;labelBackgroundColor=none;edgeStyle=orthogonalEdgeStyle;entryX=0;entryY=0.5;entryDx=0;entryDy=0;" edge="1" parent="WIyWlLk6GJQsqaUBKTNV-1">
          <mxGeometry relative="1" as="geometry">
            <mxPoint x="960" y="99.5" as="sourcePoint" />
            <mxPoint x="1000" y="99.5" as="targetPoint" />
          </mxGeometry>
        </mxCell>
        <mxCell id="sL0BoKVIkpg_OhBl1nNR-30" value="Orders to be aproved" style="rounded=1;whiteSpace=wrap;html=1;fontSize=12;glass=0;strokeWidth=1;shadow=0;" vertex="1" parent="WIyWlLk6GJQsqaUBKTNV-1">
          <mxGeometry x="880" y="360" width="120" height="40" as="geometry" />
        </mxCell>
        <mxCell id="sL0BoKVIkpg_OhBl1nNR-33" value="e-mail confirmation" style="rounded=1;whiteSpace=wrap;html=1;fontSize=12;glass=0;strokeWidth=1;shadow=0;" vertex="1" parent="WIyWlLk6GJQsqaUBKTNV-1">
          <mxGeometry x="960" y="280" width="120" height="40" as="geometry" />
        </mxCell>
        <mxCell id="sL0BoKVIkpg_OhBl1nNR-35" value="" style="rounded=0;html=1;jettySize=auto;orthogonalLoop=1;fontSize=11;endArrow=block;endFill=0;endSize=8;strokeWidth=1;shadow=0;labelBackgroundColor=none;edgeStyle=orthogonalEdgeStyle;entryX=0.5;entryY=1;entryDx=0;entryDy=0;exitX=1;exitY=0.5;exitDx=0;exitDy=0;" edge="1" parent="WIyWlLk6GJQsqaUBKTNV-1" source="sL0BoKVIkpg_OhBl1nNR-30" target="sL0BoKVIkpg_OhBl1nNR-33">
          <mxGeometry relative="1" as="geometry">
            <mxPoint x="990" y="375" as="sourcePoint" />
            <mxPoint x="1030" y="375" as="targetPoint" />
          </mxGeometry>
        </mxCell>
        <mxCell id="sL0BoKVIkpg_OhBl1nNR-36" value="" style="rounded=0;html=1;jettySize=auto;orthogonalLoop=1;fontSize=11;endArrow=block;endFill=0;endSize=8;strokeWidth=1;shadow=0;labelBackgroundColor=none;edgeStyle=orthogonalEdgeStyle;entryX=0;entryY=0.5;entryDx=0;entryDy=0;" edge="1" parent="WIyWlLk6GJQsqaUBKTNV-1" source="sL0BoKVIkpg_OhBl1nNR-37" target="sL0BoKVIkpg_OhBl1nNR-38">
          <mxGeometry relative="1" as="geometry">
            <mxPoint x="170" y="660" as="targetPoint" />
          </mxGeometry>
        </mxCell>
        <mxCell id="sL0BoKVIkpg_OhBl1nNR-37" value="Talley Eployee" style="rounded=1;whiteSpace=wrap;html=1;fontSize=12;glass=0;strokeWidth=1;shadow=0;" vertex="1" parent="WIyWlLk6GJQsqaUBKTNV-1">
          <mxGeometry x="40" y="530" width="120" height="40" as="geometry" />
        </mxCell>
        <mxCell id="sL0BoKVIkpg_OhBl1nNR-38" value="Login" style="rounded=1;whiteSpace=wrap;html=1;fontSize=12;glass=0;strokeWidth=1;shadow=0;" vertex="1" parent="WIyWlLk6GJQsqaUBKTNV-1">
          <mxGeometry x="200" y="530" width="120" height="40" as="geometry" />
        </mxCell>
        <mxCell id="sL0BoKVIkpg_OhBl1nNR-40" value="Connect Page" style="rounded=1;whiteSpace=wrap;html=1;fontSize=12;glass=0;strokeWidth=1;shadow=0;" vertex="1" parent="WIyWlLk6GJQsqaUBKTNV-1">
          <mxGeometry x="360" y="530" width="120" height="40" as="geometry" />
        </mxCell>
        <mxCell id="sL0BoKVIkpg_OhBl1nNR-41" value="Recognition form" style="rounded=1;whiteSpace=wrap;html=1;fontSize=12;glass=0;strokeWidth=1;shadow=0;" vertex="1" parent="WIyWlLk6GJQsqaUBKTNV-1">
          <mxGeometry x="520" y="530" width="120" height="40" as="geometry" />
        </mxCell>
        <mxCell id="sL0BoKVIkpg_OhBl1nNR-42" value="" style="rounded=0;html=1;jettySize=auto;orthogonalLoop=1;fontSize=11;endArrow=block;endFill=0;endSize=8;strokeWidth=1;shadow=0;labelBackgroundColor=none;edgeStyle=orthogonalEdgeStyle;entryX=0;entryY=0.5;entryDx=0;entryDy=0;" edge="1" parent="WIyWlLk6GJQsqaUBKTNV-1">
          <mxGeometry relative="1" as="geometry">
            <mxPoint x="320" y="549.5" as="sourcePoint" />
            <mxPoint x="360" y="549.5" as="targetPoint" />
          </mxGeometry>
        </mxCell>
        <mxCell id="sL0BoKVIkpg_OhBl1nNR-43" value="" style="rounded=0;html=1;jettySize=auto;orthogonalLoop=1;fontSize=11;endArrow=block;endFill=0;endSize=8;strokeWidth=1;shadow=0;labelBackgroundColor=none;edgeStyle=orthogonalEdgeStyle;entryX=0;entryY=0.5;entryDx=0;entryDy=0;" edge="1" parent="WIyWlLk6GJQsqaUBKTNV-1">
          <mxGeometry relative="1" as="geometry">
            <mxPoint x="480" y="549.5" as="sourcePoint" />
            <mxPoint x="520" y="549.5" as="targetPoint" />
          </mxGeometry>
        </mxCell>
        <mxCell id="sL0BoKVIkpg_OhBl1nNR-44" value="Employees" style="shape=cylinder3;whiteSpace=wrap;html=1;boundedLbl=1;backgroundOutline=1;size=15;" vertex="1" parent="WIyWlLk6GJQsqaUBKTNV-1">
          <mxGeometry x="270" y="650" width="100" height="70" as="geometry" />
        </mxCell>
        <mxCell id="sL0BoKVIkpg_OhBl1nNR-45" value="Recognitions" style="shape=cylinder3;whiteSpace=wrap;html=1;boundedLbl=1;backgroundOutline=1;size=15;" vertex="1" parent="WIyWlLk6GJQsqaUBKTNV-1">
          <mxGeometry x="270" y="730" width="100" height="70" as="geometry" />
        </mxCell>
        <mxCell id="sL0BoKVIkpg_OhBl1nNR-46" value="" style="endArrow=classic;startArrow=classic;html=1;rounded=0;entryX=0.7;entryY=1.075;entryDx=0;entryDy=0;exitX=1;exitY=0;exitDx=0;exitDy=27.5;exitPerimeter=0;edgeStyle=orthogonalEdgeStyle;entryPerimeter=0;fillColor=#fff2cc;strokeColor=#d6b656;strokeWidth=2;" edge="1" parent="WIyWlLk6GJQsqaUBKTNV-1" source="sL0BoKVIkpg_OhBl1nNR-45" target="sL0BoKVIkpg_OhBl1nNR-49">
          <mxGeometry width="50" height="50" relative="1" as="geometry">
            <mxPoint x="340" y="660" as="sourcePoint" />
            <mxPoint x="420.03999999999996" y="580" as="targetPoint" />
          </mxGeometry>
        </mxCell>
        <mxCell id="sL0BoKVIkpg_OhBl1nNR-65" value="Save transaction" style="edgeLabel;html=1;align=center;verticalAlign=middle;resizable=0;points=[];" vertex="1" connectable="0" parent="sL0BoKVIkpg_OhBl1nNR-46">
          <mxGeometry x="-0.1868" y="-1" relative="1" as="geometry">
            <mxPoint y="1" as="offset" />
          </mxGeometry>
        </mxCell>
        <mxCell id="sL0BoKVIkpg_OhBl1nNR-47" value="get employee&amp;nbsp; data" style="edgeStyle=orthogonalEdgeStyle;rounded=0;orthogonalLoop=1;jettySize=auto;html=1;entryX=1;entryY=0;entryDx=0;entryDy=27.5;entryPerimeter=0;fillColor=#dae8fc;strokeColor=#6c8ebf;strokeWidth=2;startArrow=classic;startFill=1;exitX=0.358;exitY=0.975;exitDx=0;exitDy=0;exitPerimeter=0;" edge="1" parent="WIyWlLk6GJQsqaUBKTNV-1" source="sL0BoKVIkpg_OhBl1nNR-41" target="sL0BoKVIkpg_OhBl1nNR-44">
          <mxGeometry relative="1" as="geometry">
            <mxPoint x="470" y="650" as="sourcePoint" />
          </mxGeometry>
        </mxCell>
        <mxCell id="sL0BoKVIkpg_OhBl1nNR-60" value="Update balance" style="edgeStyle=orthogonalEdgeStyle;rounded=0;orthogonalLoop=1;jettySize=auto;html=1;entryX=1;entryY=0;entryDx=0;entryDy=45;entryPerimeter=0;strokeWidth=2;startArrow=classic;startFill=1;endArrow=classic;endFill=1;exitX=0.25;exitY=1;exitDx=0;exitDy=0;fillColor=#ffe6cc;strokeColor=#d79b00;" edge="1" parent="WIyWlLk6GJQsqaUBKTNV-1" source="sL0BoKVIkpg_OhBl1nNR-23" target="sL0BoKVIkpg_OhBl1nNR-5">
          <mxGeometry relative="1" as="geometry" />
        </mxCell>
        <mxCell id="sL0BoKVIkpg_OhBl1nNR-63" style="edgeStyle=orthogonalEdgeStyle;rounded=0;orthogonalLoop=1;jettySize=auto;html=1;exitX=0.5;exitY=1;exitDx=0;exitDy=0;entryX=1;entryY=0;entryDx=0;entryDy=45;entryPerimeter=0;strokeWidth=2;startArrow=classic;startFill=1;endArrow=classic;endFill=1;fillColor=#d5e8d4;strokeColor=#82b366;" edge="1" parent="WIyWlLk6GJQsqaUBKTNV-1" source="sL0BoKVIkpg_OhBl1nNR-49" target="sL0BoKVIkpg_OhBl1nNR-44">
          <mxGeometry relative="1" as="geometry" />
        </mxCell>
        <mxCell id="sL0BoKVIkpg_OhBl1nNR-64" value="Update balance" style="edgeLabel;html=1;align=center;verticalAlign=middle;resizable=0;points=[];" vertex="1" connectable="0" parent="sL0BoKVIkpg_OhBl1nNR-63">
          <mxGeometry x="-0.1636" y="2" relative="1" as="geometry">
            <mxPoint as="offset" />
          </mxGeometry>
        </mxCell>
        <mxCell id="sL0BoKVIkpg_OhBl1nNR-49" value="Submit&amp;nbsp;" style="rounded=1;whiteSpace=wrap;html=1;fontSize=12;glass=0;strokeWidth=1;shadow=0;" vertex="1" parent="WIyWlLk6GJQsqaUBKTNV-1">
          <mxGeometry x="680" y="530" width="120" height="40" as="geometry" />
        </mxCell>
        <mxCell id="sL0BoKVIkpg_OhBl1nNR-50" value="" style="rounded=0;html=1;jettySize=auto;orthogonalLoop=1;fontSize=11;endArrow=block;endFill=0;endSize=8;strokeWidth=1;shadow=0;labelBackgroundColor=none;edgeStyle=orthogonalEdgeStyle;entryX=0;entryY=0.5;entryDx=0;entryDy=0;" edge="1" parent="WIyWlLk6GJQsqaUBKTNV-1">
          <mxGeometry relative="1" as="geometry">
            <mxPoint x="640" y="549.5" as="sourcePoint" />
            <mxPoint x="680" y="549.5" as="targetPoint" />
          </mxGeometry>
        </mxCell>
        <mxCell id="sL0BoKVIkpg_OhBl1nNR-51" value="" style="rounded=0;html=1;jettySize=auto;orthogonalLoop=1;fontSize=11;endArrow=block;endFill=0;endSize=8;strokeWidth=1;shadow=0;labelBackgroundColor=none;edgeStyle=orthogonalEdgeStyle;entryX=0;entryY=0.5;entryDx=0;entryDy=0;" edge="1" parent="WIyWlLk6GJQsqaUBKTNV-1">
          <mxGeometry relative="1" as="geometry">
            <mxPoint x="800" y="549.5" as="sourcePoint" />
            <mxPoint x="840" y="549.5" as="targetPoint" />
          </mxGeometry>
        </mxCell>
        <mxCell id="sL0BoKVIkpg_OhBl1nNR-53" value="Send Confirmation" style="rounded=1;whiteSpace=wrap;html=1;fontSize=12;glass=0;strokeWidth=1;shadow=0;" vertex="1" parent="WIyWlLk6GJQsqaUBKTNV-1">
          <mxGeometry x="840" y="530" width="120" height="40" as="geometry" />
        </mxCell>
        <mxCell id="sL0BoKVIkpg_OhBl1nNR-56" value="" style="rounded=0;html=1;jettySize=auto;orthogonalLoop=1;fontSize=11;endArrow=block;endFill=0;endSize=8;strokeWidth=1;shadow=0;labelBackgroundColor=none;edgeStyle=orthogonalEdgeStyle;entryX=0;entryY=0.5;entryDx=0;entryDy=0;" edge="1" parent="WIyWlLk6GJQsqaUBKTNV-1" target="sL0BoKVIkpg_OhBl1nNR-66">
          <mxGeometry relative="1" as="geometry">
            <mxPoint x="960" y="549.5" as="sourcePoint" />
            <mxPoint x="1000" y="549.5" as="targetPoint" />
          </mxGeometry>
        </mxCell>
        <mxCell id="sL0BoKVIkpg_OhBl1nNR-66" value="Giver" style="rounded=1;whiteSpace=wrap;html=1;fontSize=12;glass=0;strokeWidth=1;shadow=0;" vertex="1" parent="WIyWlLk6GJQsqaUBKTNV-1">
          <mxGeometry x="1000" y="500" width="120" height="40" as="geometry" />
        </mxCell>
        <mxCell id="sL0BoKVIkpg_OhBl1nNR-67" value="Receiver" style="rounded=1;whiteSpace=wrap;html=1;fontSize=12;glass=0;strokeWidth=1;shadow=0;" vertex="1" parent="WIyWlLk6GJQsqaUBKTNV-1">
          <mxGeometry x="1000" y="560" width="120" height="40" as="geometry" />
        </mxCell>
        <mxCell id="sL0BoKVIkpg_OhBl1nNR-68" value="" style="rounded=0;html=1;jettySize=auto;orthogonalLoop=1;fontSize=11;endArrow=block;endFill=0;endSize=8;strokeWidth=1;shadow=0;labelBackgroundColor=none;edgeStyle=orthogonalEdgeStyle;entryX=0;entryY=0.5;entryDx=0;entryDy=0;exitX=1;exitY=0.5;exitDx=0;exitDy=0;" edge="1" parent="WIyWlLk6GJQsqaUBKTNV-1" source="sL0BoKVIkpg_OhBl1nNR-53" target="sL0BoKVIkpg_OhBl1nNR-67">
          <mxGeometry relative="1" as="geometry">
            <mxPoint x="970" y="559.5" as="sourcePoint" />
            <mxPoint x="1010" y="510" as="targetPoint" />
          </mxGeometry>
        </mxCell>
      </root>
    </mxGraphModel>
  </diagram>
</mxfile>
